<?xml version="1.0" standalone="no"?><!DOCTYPE svg PUBLIC "-//W3C//DTD SVG 1.1//EN" "http://www.w3.org/Graphics/SVG/1.1/DTD/svg11.dtd"><svg t="1591694113017" class="icon" viewBox="0 0 1024 1024" version="1.1" xmlns="http://www.w3.org/2000/svg" p-id="1795" data-spm-anchor-id="a313x.7781069.0.i0" xmlns:xlink="http://www.w3.org/1999/xlink" width="200" height="200"><defs><style type="text/css"></style></defs><path d="M889.18 505.89a35 35 0 0 0-35 35v313.73H160V227.17h245.71a35 35 0 0 0 0-70H125a35 35 0 0 0-35 35v697.45a35 35 0 0 0 35 35h764.18a35 35 0 0 0 35-35V540.89a35 35 0 0 0-35-35z" fill="#ffffff" p-id="1796"></path><path d="M941.75 285.88L822.33 79.05a35 35 0 0 0-47.81-12.81L551.89 194.78a35 35 0 0 0 35 60.62l150-86.6C690.75 336.93 563.08 592.22 313 699.27a35 35 0 1 0 27.55 64.35c70.73-30.28 136.76-73 196.25-126.82 52.42-47.48 100-103.81 141.4-167.43C733.75 384 778.24 284.24 804.38 188l76.74 132.93a35 35 0 0 0 60.63-35z" fill="#ffffff" p-id="1797"></path></svg>