<?xml version="1.0" standalone="no"?><!DOCTYPE svg PUBLIC "-//W3C//DTD SVG 1.1//EN" "http://www.w3.org/Graphics/SVG/1.1/DTD/svg11.dtd"><svg t="1591694134846" class="icon" viewBox="0 0 1024 1024" version="1.1" xmlns="http://www.w3.org/2000/svg" p-id="1163" xmlns:xlink="http://www.w3.org/1999/xlink" width="200" height="200"><defs><style type="text/css"></style></defs><path d="M330.5 474.3c-7.6-17.8-28.1-26.1-45.9-18.5-17.8 7.6-26.1 28.1-18.5 45.9l90.6 213.2c5.7 13.3 18.6 21.3 32.2 21.3 4.6 0 9.2-0.9 13.7-2.8l229.5-97.5c17.8-7.6 26.1-28.1 18.5-45.9-7.6-17.8-28.1-26.1-45.9-18.5l-152.3 64.7C517.1 480 669.7 251.5 921.5 178.4c18.6-5.4 29.2-24.8 23.9-43.4-5.4-18.6-24.8-29.2-43.4-23.9-71.8 20.8-140.5 54.2-204.2 99.1C641.6 249.8 589 298.5 541.6 355c-63.1 75-117.3 165-153.9 254l-57.2-134.7z" p-id="1164" fill="#ffffff"></path><path d="M925.8 530.8c-19.3 0-35 15.7-35 35v278.4H133.2V287.4h269c19.3 0 35-15.7 35-35s-15.7-35-35-35h-304c-19.3 0-35 15.7-35 35v626.8c0 19.3 15.7 35 35 35h827.5c19.3 0 35-15.7 35-35V565.8c0.1-19.3-15.6-35-34.9-35z" p-id="1165" fill="#ffffff"></path></svg>